<svg xmlns="http://www.w3.org/2000/svg" width="466.94" height="169.39" viewBox="0 0 466.94 169.39">
  <g id="BeehiveMarcaDgua" transform="translate(-74.26 -294.26)">
    <path id="Caminho_24" data-name="Caminho 24" d="M12,0H453.94a12,12,0,0,1,12,12V156.39a12,12,0,0,1-12,12H12a12,12,0,0,1-12-12V12A12,12,0,0,1,12,0Z" transform="translate(74.76 294.76)" fill="#fdd1ae" stroke="#0f0c0a" stroke-width="1"/>
    <g id="Grupo_2" data-name="Grupo 2">
      <path id="Caminho_6" data-name="Caminho 6" d="M195.01,383.98a15.8,15.8,0,0,1,4.82,19.78,10.83,10.83,0,0,1-3.23,3.85,11.97,11.97,0,0,1-6.83,2.05c-4.68.18-15.34.42-29.57.32-.02-1.42-.03-2.84-.05-4.26,16.41.37,28.49.08,31.3-.59a7.688,7.688,0,0,0,3.2-1.63,6.784,6.784,0,0,0,1.77-2.97,14.435,14.435,0,0,0,.19-7.63,7.456,7.456,0,0,0-2.23-3.99,8.4,8.4,0,0,0-5.53-1.79c-3.99-.11-14.51-.31-28.76-.27-.01-1.31-.02-2.63-.02-3.94,12.7-.07,22.24-.24,26.52-.28a7.526,7.526,0,0,0,4.54-1.3,7.006,7.006,0,0,0,2.59-4.3,16.9,16.9,0,0,0-.15-8.21,6.509,6.509,0,0,0-2.12-3.52,6.439,6.439,0,0,0-3.81-1.29c-3.37-.2-13.6-.29-27.45-.07,0-1.27.01-2.55.01-3.82,2.63-.07,15.08-.38,26.99-.12,1.73.04,4.77.15,7.27,2.2a11.186,11.186,0,0,1,3.66,7.02C199.02,374.48,198.52,379.48,195.01,383.98Z" fill="#0f0c0a"/>
      <path id="Caminho_7" data-name="Caminho 7" d="M390.15,407.5c-1.27-.03-2.54-.07-3.81-.1-.22-.6-.84-2.24-1.07-2.83q-8.4-22.365-16.6-44.7c1.3.01,2.6.03,3.91.04,5.98,14.24,11.53,29.04,16.54,44.41C389.47,405.39,389.81,406.45,390.15,407.5Z" fill="#0f0c0a"/>
      <path id="Caminho_8" data-name="Caminho 8" d="M409.15,359.65q-8.295,20.745-16.6,41.48c-.58-1.66-1.16-3.31-1.74-4.97q7.02-18.18,14.05-36.36Z" fill="#0f0c0a"/>
      <path id="Caminho_9" data-name="Caminho 9" d="M305.63,359.71h4.46q.045,24.63.08,49.25h-4.34Q305.74,384.33,305.63,359.71Z" fill="#0f0c0a"/>
      <path id="Caminho_10" data-name="Caminho 10" d="M354.34,359.71h4.46q.045,24.63.08,49.25h-4.34Q354.45,384.33,354.34,359.71Z" fill="#0f0c0a"/>
      <path id="Caminho_11" data-name="Caminho 11" d="M334.38,359.71h4.46q.045,24.63.08,49.25h-4.34Q334.49,384.33,334.38,359.71Z" fill="#0f0c0a"/>
      <path id="Caminho_12" data-name="Caminho 12" d="M313.75,386.31v-4.46q12.315-.045,24.63-.08v4.34Q326.065,386.2,313.75,386.31Z" fill="#0f0c0a"/>
      <path id="Caminho_13" data-name="Caminho 13" d="M213.16,359.71q17.145.015,34.28.02c.01,1.38.02,2.76.03,4.15l-34.31.06" fill="#0f0c0a"/>
      <path id="Caminho_14" data-name="Caminho 14" d="M213.16,404.74q17.145.015,34.28.02c.01,1.38.02,2.76.03,4.15l-34.31.06" fill="#0f0c0a"/>
      <path id="Caminho_15" data-name="Caminho 15" d="M213.13,384.95c-.01-1.4-.02-2.8-.03-4.19l22.47.01v4.17Q224.35,384.94,213.13,384.95Z" fill="#0f0c0a"/>
      <path id="Caminho_16" data-name="Caminho 16" d="M258.54,359.71q17.145.015,34.28.02c.01,1.38.02,2.76.03,4.15l-34.31.06" fill="#0f0c0a"/>
      <path id="Caminho_17" data-name="Caminho 17" d="M258.54,404.74q17.145.015,34.28.02c.01,1.38.02,2.76.03,4.15l-34.31.06" fill="#0f0c0a"/>
      <path id="Caminho_18" data-name="Caminho 18" d="M258.51,384.95c-.01-1.4-.02-2.8-.03-4.19l22.47.01v4.17Q269.73,384.94,258.51,384.95Z" fill="#0f0c0a"/>
      <path id="Caminho_19" data-name="Caminho 19" d="M418.94,359.71q17.145.015,34.28.02c.01,1.38.02,2.76.03,4.15l-34.31.06" fill="#0f0c0a"/>
      <path id="Caminho_20" data-name="Caminho 20" d="M418.94,404.74q17.145.015,34.28.02c.01,1.38.02,2.76.03,4.15l-34.31.06" fill="#0f0c0a"/>
      <path id="Caminho_21" data-name="Caminho 21" d="M418.91,384.95c-.01-1.4-.02-2.8-.03-4.19l22.47.01v4.17Q430.13,384.94,418.91,384.95Z" fill="#0f0c0a"/>
      <path id="Caminho_22" data-name="Caminho 22" d="M310.32,408.44" fill="#0f0c0a"/>
    </g>
  </g>
</svg>
