<?xml version="1.0" encoding="UTF-8" standalone="no"?>
<svg
   xmlns:dc="http://purl.org/dc/elements/1.1/"
   xmlns:cc="http://creativecommons.org/ns#"
   xmlns:rdf="http://www.w3.org/1999/02/22-rdf-syntax-ns#"
   xmlns:svg="http://www.w3.org/2000/svg"
   xmlns="http://www.w3.org/2000/svg"
   id="svg845"
   version="1.1"
   viewBox="0 0 601.397 336.385"
   height="336.385"
   width="601.397">
  <metadata
     id="metadata849">
    <rdf:RDF>
      <cc:Work
         rdf:about="">
        <dc:format>image/svg+xml</dc:format>
        <dc:type
           rdf:resource="http://purl.org/dc/dcmitype/StillImage" />
        <dc:title></dc:title>
      </cc:Work>
    </rdf:RDF>
  </metadata>
  <defs
     id="defs835">
    <style
       id="style833">
      .cls-1 {
        fill: #2f598f;
        font-size: 105px;
        font-family: MerriweatherSans-BoldItalic, Merriweather Sans;
        font-weight: 700;
        font-style: italic;
      }

      .cls-2 {
        fill: #8ac7e8;
      }

      .cls-3 {
        fill: #8ab9d3;
      }

      .cls-4 {
        fill: #4fb4ec;
      }

      .cls-5 {
        fill: #0378b9;
      }
    </style>
  </defs>
  <g
     transform="translate(-1333.691 -303.01)"
     id="WaterGun">
    <path
       d="m 1478.7512,429.44162 -31.3769,78.69873 h -15.791 l -3.8965,-36.04248 -0.8203,-8.66455 -2.9737,8.66455 -13.5864,36.04248 h -14.8681 l -10.6641,-78.69873 h 14.2016 l 5.127,53.1665 1.333,11.22803 3.2813,-11.22803 15.4321,-38.91357 -1.5894,-14.25293 h 13.7403 l 4.5117,53.1665 0.9741,11.22803 3.23,-11.22803 19.2773,-53.1665 z"
       id="path851"
       style="font-style:italic;font-weight:700;font-size:105px;font-family:MerriweatherSans-BoldItalic, 'Merriweather Sans';fill:#2f598f" />
    <path
       d="m 1528.739,448.61642 -8.1518,59.26758 h -12.6123 l 0.7177,-11.17676 q -2.9223,5.02442 -7.434,8.51074 -4.4605,3.48633 -10.1001,3.48633 -8.5108,0 -12.5611,-5.99853 -3.999,-5.99854 -3.999,-16.04737 0,-9.27978 3.8452,-17.9956 3.8452,-8.76709 11.5869,-14.40674 7.793,-5.63965 18.9185,-5.63965 2.7685,0 6.1011,0.61524 3.3325,0.56396 6.0498,1.38427 z m -33.479,50.03906 q 4.2041,0 8.1006,-4.81933 3.9478,-4.81934 6.6138,-10.86914 l 3.4863,-24.60938 q -2.5122,-0.71777 -5.9472,-0.71777 -5.9473,0 -10.0489,4.2041 -4.1015,4.2041 -6.1523,10.66406 -1.9995,6.40869 -1.9995,12.97119 0,6.66504 1.4868,9.94629 1.5381,3.22998 4.4604,3.22998 z"
       id="path853"
       style="font-style:italic;font-weight:700;font-size:105px;font-family:MerriweatherSans-BoldItalic, 'Merriweather Sans';fill:#2f598f" />
    <path
       d="m 1544.6326,458.97287 h -5.127 l 1.9995,-9.53614 h 5.3834 l 4.1015,-14.25293 h 11.0742 l -1.8969,14.25293 h 12.4072 l -1.1792,9.53614 h -12.5098 l -3.7427,28.0957 q -0.205,1.48682 -0.2563,1.99951 -0.5127,3.69141 -0.5127,5.07569 0,1.99951 0.6665,3.22998 0.6665,1.1792 2.5635,1.1792 1.7431,0 4.9731,-1.53809 3.23,-1.53809 4.9732,-3.07617 l 1.9995,7.12646 q -1.7945,1.74317 -4.8194,3.5376 -3.0249,1.79443 -6.8188,3.0249 -3.7427,1.1792 -7.4341,1.1792 -4.9219,0 -7.8442,-2.51221 -2.8711,-2.5122 -2.8711,-7.58789 0,-0.76904 0.2051,-3.12744 0.205,-2.40967 0.6665,-5.48584 z"
       id="path855"
       style="font-style:italic;font-weight:700;font-size:105px;font-family:MerriweatherSans-BoldItalic, 'Merriweather Sans';fill:#2f598f" />
    <path
       d="m 1609.1297,448.61642 q 7.9467,0 11.9458,3.5376 3.999,3.5376 3.999,9.5874 0,10.92041 -9.6387,16.97022 -9.6387,6.0498 -23.1738,8.45947 -0.3076,11.38184 9.0747,11.38184 4.2041,0 8.8183,-2.3584 4.6656,-2.40967 7.9981,-5.896 l 3.7427,7.229 q -1.6919,2.40967 -5.0757,5.02442 -3.3838,2.56348 -8.1519,4.35791 -4.768,1.79443 -10.1513,1.79443 -7.1265,0 -11.8946,-3.12744 -4.768,-3.17871 -7.0239,-8.35693 -2.2559,-5.22949 -2.2559,-11.38184 0,-10.40771 4.1016,-18.91846 4.1528,-8.51074 11.3819,-13.38134 7.2802,-4.92188 16.3037,-4.92188 z m 2.102,14.45801 q 0,-3.0249 -1.333,-4.30664 -1.333,-1.33301 -3.8965,-1.33301 -3.9477,0 -6.9726,3.5376 -2.9737,3.48633 -4.7168,8.56201 -1.7432,5.02441 -2.0508,9.48486 3.7939,-0.20507 8.2544,-2.30712 4.5117,-2.15333 7.5879,-5.74219 3.1274,-3.58887 3.1274,-7.89551 z"
       id="path857"
       style="font-style:italic;font-weight:700;font-size:105px;font-family:MerriweatherSans-BoldItalic, 'Merriweather Sans';fill:#2f598f" />
    <path
       d="m 1669.6277,448.61642 q 2.5635,0 3.3838,0.66651 l -2.7686,14.61181 q -0.6152,-0.51269 -1.9995,-0.76904 -1.3842,-0.25635 -3.0761,-0.25635 -3.4864,0 -7.1778,2.56348 -3.6914,2.56347 -6.4599,7.17773 l -4.8706,35.27344 h -14.1504 l 7.998,-58.44727 h 13.5864 l -0.9228,11.07422 q 1.333,-2.87109 3.6914,-5.58838 2.4097,-2.71728 5.6909,-4.51171 3.2813,-1.79444 7.0752,-1.79444 z"
       id="path859"
       style="font-style:italic;font-weight:700;font-size:105px;font-family:MerriweatherSans-BoldItalic, 'Merriweather Sans';fill:#2f598f" />
    <path
       d="m 1736.7395,467.38107 h 25.6861 l -4.8194,36.04248 q -2.3584,0.30762 -6.3061,1.43555 -4.3067,1.23047 -7.1265,1.94824 -2.7686,0.71777 -6.6138,1.28174 -3.8452,0.61523 -7.8955,0.61523 -9.7925,0 -16.1499,-4.61426 -6.3061,-4.66552 -9.1772,-11.99707 -2.8711,-7.38281 -2.9224,-15.84228 -0.1538,-13.89404 5.0757,-24.71191 5.2295,-10.86915 14.3555,-16.86768 9.1259,-6.04981 20.2002,-6.04981 6.3061,0 10.664,0.82032 4.3579,0.82031 8.0493,2.05078 l 3.3838,1.12793 -3.4863,12.81738 q -1.4355,-1.07666 -4.2041,-2.30713 -2.7686,-1.23047 -6.6138,-2.10205 -3.8452,-0.92285 -8.1006,-0.92285 -8.6645,0 -14.3042,5.28076 -5.5883,5.22949 -8.1518,13.17627 -2.5122,7.94678 -2.5122,16.25244 0,10.35645 3.8965,16.76514 3.9477,6.35742 12.2534,6.35742 3.0249,0 6.8188,-0.71777 3.8452,-0.71778 6.5625,-2.05078 l 2.3584,-16.50879 h -12.3047 z"
       id="path861"
       style="font-style:italic;font-weight:700;font-size:105px;font-family:MerriweatherSans-BoldItalic, 'Merriweather Sans';fill:#2f598f" />
    <path
       d="m 1826.7688,449.43673 -7.8442,58.44727 h -12.8174 l 0.7178,-10.51025 q -3.6402,5.07568 -8.7159,8.30566 -5.0756,3.22998 -10.8178,3.22998 -6.6138,0 -10.2539,-3.38379 -3.6402,-3.38379 -3.6402,-10.97168 0,-2.40967 0.3589,-5.69092 0.3589,-3.28125 1.0767,-8.97216 0.8203,-5.896 2.2558,-16.30371 1.4356,-10.40772 1.9995,-14.1504 h 14.0479 q -0.1025,0.97413 -0.2051,1.38428 -0.6152,4.7168 -2.102,15.58594 -1.4356,10.86914 -1.7432,13.63769 -1.1792,8.51075 -1.1792,12.09961 0,3.17871 1.333,4.51172 1.333,1.33301 3.8965,1.33301 3.4351,0 7.3828,-3.33252 3.999,-3.38379 7.0752,-8.20312 l 5.0244,-37.01661 z"
       id="path863"
       style="font-style:italic;font-weight:700;font-size:105px;font-family:MerriweatherSans-BoldItalic, 'Merriweather Sans';fill:#2f598f" />
    <path
       d="m 1876.2952,448.61642 q 6.3574,0 9.5361,3.58887 3.23,3.5376 3.23,11.58691 0,3.5376 -2.0508,17.79053 -0.7178,5.3833 -2.666,18.5083 l -1.1279,7.69043 h -14.1504 q 0.4101,-3.22998 0.8203,-6.10107 0.4614,-2.92237 0.8203,-5.43457 1.2817,-8.86963 2.0508,-14.61182 1.6919,-12.30469 1.6919,-16.20117 0,-3.0249 -1.1792,-4.15283 -1.1792,-1.12793 -3.5889,-1.12793 -2.3071,0 -5.1782,1.53808 -2.8198,1.48682 -5.5884,4.0503 -2.7685,2.56347 -4.8706,5.69091 l -4.9731,36.3501 h -14.1504 l 7.9468,-58.34473 h 13.4838 l -0.8203,10.86915 q 4.0503,-5.28077 9.4849,-8.45948 5.4346,-3.22998 11.2793,-3.22998 z"
       id="path865"
       style="font-style:italic;font-weight:700;font-size:105px;font-family:MerriweatherSans-BoldItalic, 'Merriweather Sans';fill:#2f598f" />
    <path
       transform="translate(1346.653 310.529)"
       d="M422.043,61.241C594.776,61.241,555.02-5.75,555.02-5.75S633.531,113.165,460.8,113.165c-61.777,0-178.535-35.729-263.334-51.926-26.792-5.119-51.531-2.847-68.351-3.18-66.044-1.3-134.349,27.1-134.349,27.1S69.2,37.285,154.872,24.8,298.02,61.241,422.043,61.241Z"
       class="cls-2"
       data-name="Caminho 22"
       id="Caminho_22" />
    <path
       transform="translate(1339.563 489.449)"
       d="M414.755,83.64c172.733,0,178.192-108.892,178.192-91.024s33.3,142.947-139.435,142.947c-61.777,0-178.535-35.729-263.334-51.926-26.792-5.119-51.531-2.847-68.351-3.18C55.782,79.156-4.055,127.576-4.055,127.576S61.9,59.69,147.581,47.2,290.73,83.64,414.755,83.64Z"
       class="cls-3"
       data-name="Caminho 21"
       id="Caminho_21" />
    <path
       transform="translate(1345.19 308)"
       d="M416.314,56.581C589.048,56.581,555.27-4.99,555.27-4.99S627.805,108.5,455.07,108.5c-61.777,0-178.535-35.729-263.334-51.926-26.79-5.116-51.531-2.838-68.348-3.178C57.343,52.1-4.308,87.842-4.308,87.842s67.772-55.21,153.451-67.7S292.292,56.581,416.314,56.581Z"
       class="cls-4"
       data-name="Caminho 20"
       id="Caminho_20" />
    <path
       transform="translate(1338 503.829)"
       d="M416.316,83.64c172.733,0,178.192-108.892,178.192-91.024s33.3,142.949-139.437,142.949c-61.777,0-178.535-35.729-263.334-51.926-26.792-5.119-51.531-2.847-68.351-3.18C57.342,79.159-4.309,114.9-4.309,114.9S63.465,59.69,149.144,47.2,292.293,83.64,416.316,83.64Z"
       class="cls-5"
       data-name="Caminho 15"
       id="Caminho_15" />
  </g>
</svg>
